
<svg width="32" height="32" viewBox="0 0 32 32" fill="none" xmlns="http://www.w3.org/2000/svg">
  <rect width="32" height="32" rx="8" fill="url(#paint0_linear)" />
  <path d="M10 10C10 9.44772 10.4477 9 11 9H14C17.3137 9 20 11.6863 20 15C20 18.3137 17.3137 21 14 21H11C10.4477 21 10 20.5523 10 20V10Z" fill="white"/>
  <path d="M22 10C22 9.44772 22.4477 9 23 9H24C24.5523 9 25 9.44772 25 10V20C25 20.5523 24.5523 21 24 21H23C22.4477 21 22 20.5523 22 20V10Z" fill="white"/>
  <defs>
    <linearGradient id="paint0_linear" x1="0" y1="0" x2="32" y2="32" gradientUnits="userSpaceOnUse">
      <stop stop-color="#4F46E5"/>
      <stop offset="1" stop-color="#8B5CF6"/>
    </linearGradient>
  </defs>
</svg>
